<?xml version="1.0" encoding="utf-8"?>
<!-- Generator: Adobe Illustrator 25.0.0, SVG Export Plug-In . SVG Version: 6.00 Build 0)  -->
<svg version="1.1" id="help" xmlns="http://www.w3.org/2000/svg" xmlns:xlink="http://www.w3.org/1999/xlink" x="0px" y="0px"
	 viewBox="0 0 42.5 42.5" style="enable-background:new 0 0 42.5 42.5;" xml:space="preserve">
<path d="M21.2,2.5L21.2,2.5c-0.3,0-0.5,0.2-0.5,0.5v4c0,0.3,0.2,0.5,0.5,0.5l0,0c0.3,0,0.5-0.2,0.5-0.5V3
	C21.8,2.7,21.5,2.5,21.2,2.5z"/>
<path d="M21.2,35L21.2,35c-0.3,0-0.5,0.2-0.5,0.5v4c0,0.3,0.2,0.5,0.5,0.5l0,0c0.3,0,0.5-0.2,0.5-0.5v-4C21.8,35.2,21.5,35,21.2,35z
	"/>
<path d="M2.5,21.2L2.5,21.2c0,0.3,0.2,0.5,0.5,0.5h4c0.3,0,0.5-0.2,0.5-0.5l0,0c0-0.3-0.2-0.5-0.5-0.5H3C2.7,20.8,2.5,21,2.5,21.2z"
	/>
<path d="M35,21.2L35,21.2c0,0.3,0.2,0.5,0.5,0.5h4c0.3,0,0.5-0.2,0.5-0.5l0,0c0-0.3-0.2-0.5-0.5-0.5h-4C35.2,20.8,35,21,35,21.2z"/>
<path d="M34.5,8L34.5,8c-0.2-0.2-0.5-0.2-0.7,0L31,10.8c-0.2,0.2-0.2,0.5,0,0.7l0,0c0.2,0.2,0.5,0.2,0.7,0l2.8-2.8
	C34.7,8.5,34.7,8.2,34.5,8z"/>
<path d="M11.5,31L11.5,31c-0.2-0.2-0.5-0.2-0.7,0L8,33.8c-0.2,0.2-0.2,0.5,0,0.7l0,0c0.2,0.2,0.5,0.2,0.7,0l2.8-2.8
	C11.7,31.5,11.7,31.2,11.5,31z"/>
<path d="M8,8L8,8C7.8,8.2,7.8,8.5,8,8.7l2.8,2.8c0.2,0.2,0.5,0.2,0.7,0l0,0c0.2-0.2,0.2-0.5,0-0.7L8.7,8C8.5,7.8,8.2,7.8,8,8z"/>
<path d="M31,31L31,31c-0.2,0.2-0.2,0.5,0,0.7l2.8,2.8c0.2,0.2,0.5,0.2,0.7,0l0,0c0.2-0.2,0.2-0.5,0-0.7L31.7,31
	C31.5,30.8,31.2,30.8,31,31z"/>
<path d="M25.9,11.3L25.9,11.3c0.1,7.7-3.4,15-9.3,19.9l0,0c5.5,2.6,12.1,0.2,14.6-5.3S31.4,13.8,25.9,11.3z"/>
<path d="M16.2,29.9c-4.4-2.6-6.3-8.2-4.1-13s7.7-7,12.5-5.2c0-0.2,0-1,0-1c-5.2-1.7-11,0.7-13.4,5.8s-0.5,11.1,4.2,14
	C15.4,30.6,16,30,16.2,29.9z"/>
</svg>
