<?xml version="1.0" encoding="utf-8"?>
<!-- Generator: Adobe Illustrator 25.0.0, SVG Export Plug-In . SVG Version: 6.00 Build 0)  -->
<svg version="1.1" id="exit" xmlns="http://www.w3.org/2000/svg" xmlns:xlink="http://www.w3.org/1999/xlink" x="0px" y="0px"
	 viewBox="0 0 42.52 42.52" style="enable-background:new 0 0 42.52 42.52;" xml:space="preserve">
<g>
	<g>
		<path class="st0" d="M30.54,6.97l-12.46,1.5c-0.35,0.04-0.62,0.38-0.62,0.79v7.41h-6.76v8.4h6.76v9.69c0,0.63,0.6,1,1.06,0.67
			l12.46-9.05c0.2-0.15,0.32-0.4,0.32-0.67V7.76C31.31,7.29,30.95,6.92,30.54,6.97z M19.11,27.06v-3h-7.4v-6.4h7.4v-3l6.2,6.2
			L19.11,27.06z M28.56,15.69c-0.86,0-1.56-0.7-1.56-1.56c0-0.86,0.7-1.56,1.56-1.56c0.86,0,1.56,0.7,1.56,1.56
			C30.12,15,29.42,15.69,28.56,15.69z"/>
	</g>
</g>
</svg>
