<?xml version="1.0" encoding="utf-8"?>
<svg version="1.1" xmlns="http://www.w3.org/2000/svg" viewBox="0 0 212.6 141.7">
<style type="text/css">
	.st0{fill:#E60012;stroke:#E60012;stroke-miterlimit:10;}
</style>
<g>
	<g>
		<path class="st0" d="M54.3,34.2V41c0,3.4-0.6,6.2-1.7,8.6c-1.2,2.4-2.9,4.2-5.1,5.4c-2.2,1.2-4.9,1.9-8.1,1.9
			c-3.2,0-5.9-0.6-8.2-1.8s-4-2.9-5.2-5.1c-1.2-2.2-1.8-5-1.8-8.1V29.4c0-3.4,0.6-6.2,1.7-8.6c1.2-2.4,2.9-4.2,5.1-5.4
			c2.2-1.2,4.9-1.9,8.1-1.9c2.6,0,4.9,0.5,6.9,1.5c2,1,3.7,2.4,5,4.3c1.3,1.9,2.2,4.2,2.8,6.9h-5.5c-0.4-1.7-1.1-3.1-2-4.3
			c-0.9-1.2-1.9-2-3.2-2.6c-1.2-0.6-2.6-0.9-4.1-0.9c-2.1,0-3.8,0.4-5.3,1.3c-1.5,0.9-2.6,2.1-3.3,3.8s-1.1,3.6-1.1,6V42
			c0,2.2,0.4,4,1.2,5.5c0.8,1.5,1.9,2.7,3.4,3.4c1.5,0.8,3.3,1.2,5.4,1.2c2.1,0,3.8-0.4,5.2-1.2c1.4-0.8,2.5-2,3.3-3.7
			c0.8-1.6,1.1-3.7,1.1-6.1V39h-9.5v-4.8H54.3z"/>
		<path class="st0" d="M75.5,13.9h5.1l15.7,42.6h-5.6L78.1,20.3L65.4,56.5h-5.6L75.5,13.9z M67.1,41.9h22.4v4.8H67.1V41.9z"/>
		<path class="st0" d="M134,13.9h5v42.6h-5V22.3l0.4,1.9l-11.7,26.5h-3.6l-11.7-25.9l0.4-2.5v34.2h-5V13.9h5l13.1,29.4L134,13.9z"/>
		<path class="st0" d="M149.5,13.9h5.1v42.6h-5.1V13.9z M152.4,13.9h24.5v4.8h-24.5V13.9z M152.4,33h21.2v4.8h-21.2V33z M152.4,51.7
			h24.5v4.8h-24.5V51.7z"/>
		<path class="st0" d="M36.9,127.1c-2.3-1.3-4-3.1-5.2-5.4s-1.8-5.2-1.8-8.4v-12.1c0-3.2,0.6-6,1.8-8.4s2.9-4.2,5.2-5.4
			s4.9-1.9,8-1.9c3.1,0,5.7,0.6,8,1.9s4,3.1,5.2,5.4s1.8,5.2,1.8,8.4v12.1c0,3.2-0.6,6-1.8,8.4s-2.9,4.2-5.2,5.4s-4.9,1.9-8,1.9
			C41.8,129,39.2,128.3,36.9,127.1z M50.1,122.8c1.5-0.8,2.6-2.1,3.4-3.7s1.2-3.5,1.2-5.7V101c0-2.2-0.4-4.1-1.2-5.7
			s-1.9-2.8-3.4-3.7c-1.5-0.8-3.2-1.3-5.2-1.3c-2,0-3.8,0.4-5.2,1.3c-1.5,0.8-2.6,2.1-3.4,3.7s-1.2,3.5-1.2,5.7v12.5
			c0,2.2,0.4,4.1,1.2,5.7s1.9,2.8,3.4,3.7c1.5,0.8,3.2,1.3,5.2,1.3C46.9,124.1,48.7,123.7,50.1,122.8z"/>
		<path class="st0" d="M65.2,85.9h5.5l11.2,35l11.2-35h5.5l-14.3,42.6h-4.8L65.2,85.9z"/>
		<path class="st0" d="M104.8,85.9h5.1v42.6h-5.1V85.9z M107.7,85.9h24.5v4.8h-24.5V85.9z M107.7,105h21.2v4.8h-21.2V105z
			 M107.7,123.7h24.5v4.8h-24.5V123.7z"/>
		<path class="st0" d="M140.6,85.9h5.1v42.6h-5.1V85.9z M143.2,105.7h14.5c1.4,0,2.6-0.3,3.6-0.9c1-0.6,1.8-1.5,2.4-2.6
			c0.6-1.1,0.9-2.5,0.9-3.9c0-1.5-0.3-2.8-0.8-3.9c-0.6-1.1-1.4-2-2.4-2.6c-1-0.6-2.2-0.9-3.6-0.9h-14.5v-4.8h14.3
			c2.5,0,4.6,0.5,6.5,1.5s3.3,2.5,4.3,4.3s1.5,4,1.5,6.5s-0.5,4.6-1.5,6.5s-2.5,3.3-4.4,4.3s-4,1.5-6.5,1.5h-14.3V105.7z
			 M155.9,109.2l4.9-1.3l10.9,20.7h-6.1L155.9,109.2z"/>
	</g>
</g>
</svg>
