<?xml version="1.0" encoding="utf-8"?>
<!-- Generator: Adobe Illustrator 25.0.0, SVG Export Plug-In . SVG Version: 6.00 Build 0)  -->
<svg version="1.1" id="圖層_1" xmlns="http://www.w3.org/2000/svg" xmlns:xlink="http://www.w3.org/1999/xlink" x="0px" y="0px"
	 viewBox="0 0 212.6 141.7" enable-background="new 0 0 212.6 141.7" xml:space="preserve">
<g>
	<g>
		<path fill="none" stroke="#E60012" stroke-width="3" stroke-miterlimit="10" d="M13.7,36.9c0-13.1,9-20.5,19.4-20.5
			c5.8,0,10,2.4,12.7,5.2l-5.4,6.6c-1.9-1.7-3.8-2.9-7-2.9c-5.3,0-9.2,4.2-9.2,11.3c0,7.3,3.2,11.4,10.2,11.4c1.1,0,2.3-0.2,3-0.7
			v-5.4h-5.8v-8.4h14.9V52c-2.8,2.6-7.7,4.8-13.2,4.8C22.5,56.8,13.7,50.2,13.7,36.9z"/>
		<path fill="none" stroke="#E60012" stroke-width="3" stroke-miterlimit="10" d="M73.1,17.1h12.5l11.9,39H86.6l-4.4-19
			c-1-3.7-1.9-8.5-2.9-12.4H79c-0.8,4-1.8,8.6-2.8,12.4l-4.4,19H61.3L73.1,17.1z M69.8,39.8h19.1v8H69.8V39.8z"/>
		<path fill="none" stroke="#E60012" stroke-width="3" stroke-miterlimit="10" d="M113.2,17.1h11l5.9,16c0.7,2.2,1.3,4.6,2,6.8h0.2
			c0.7-2.3,1.3-4.7,2-6.8l5.6-16h11v39h-9.4V44.6c0-4,0.8-10,1.3-13.9h-0.2l-3.2,9.4l-4.8,12.9h-5.5L124.5,40l-3.1-9.4h-0.2
			c0.5,3.9,1.3,10,1.3,13.9v11.5h-9.2V17.1z"/>
		<path fill="none" stroke="#E60012" stroke-width="3" stroke-miterlimit="10" d="M171.8,17.1H197v8.6h-14.9v6.1h12.7v8.6h-12.7v7
			h15.5v8.6h-25.8V17.1z"/>
		<path fill="none" stroke="#E60012" stroke-width="3" stroke-miterlimit="10" d="M17.1,108.4c0-12.8,7.3-20,18.1-20
			c10.8,0,18.1,7.3,18.1,20c0,12.8-7.3,20.4-18.1,20.4C24.4,128.8,17.1,121.3,17.1,108.4z M42.8,108.4c0-7.1-2.9-11.2-7.6-11.2
			s-7.6,4.1-7.6,11.2c0,7.1,2.9,11.5,7.6,11.5S42.8,115.5,42.8,108.4z"/>
		<path fill="none" stroke="#E60012" stroke-width="3" stroke-miterlimit="10" d="M67.4,89.1h10.9l4.1,17c1.1,4.1,1.8,8.2,2.9,12.4
			h0.2c1.1-4.2,1.9-8.2,2.9-12.4l4-17h10.6l-11.5,39H78.9L67.4,89.1z"/>
		<path fill="none" stroke="#E60012" stroke-width="3" stroke-miterlimit="10" d="M118.6,89.1h25.2v8.6h-14.9v6.1h12.7v8.6h-12.7v7
			h15.5v8.6h-25.8V89.1z"/>
		<path fill="none" stroke="#E60012" stroke-width="3" stroke-miterlimit="10" d="M164,89.1h14.8c8.4,0,15.6,2.9,15.6,12.6
			c0,9.4-7.2,13.3-15.6,13.3h-4.4v13.1H164V89.1z M178,106.9c4.1,0,6.2-1.8,6.2-5.2c0-3.4-2.2-4.4-6.2-4.4h-3.7v9.6H178z
			 M176.9,112.3l7-6.8l12.7,22.6H185L176.9,112.3z"/>
	</g>
</g>
</svg>
