<?xml version="1.0" encoding="utf-8"?>
<!-- Generator: Adobe Illustrator 25.0.0, SVG Export Plug-In . SVG Version: 6.00 Build 0)  -->
<svg class="st0-svg" version="1.1" id="help" xmlns="http://www.w3.org/2000/svg" xmlns:xlink="http://www.w3.org/1999/xlink" x="0px" y="0px"
	 viewBox="0 0 42.5 42.5" style="enable-background:new 0 0 42.5 42.5;" xml:space="preserve">
<g>
	<g>
		<path class="st0" d="M19.4,24c0.3-1.1,0.8-2,1.3-2.8c0.5-0.8,1.1-1.7,1.9-2.7c0.6-0.8,1.1-1.4,1.4-1.9c0.3-0.5,0.6-1.1,0.9-1.7
			c0.2-0.6,0.3-1.3,0.3-2v0c0-1.1-0.3-2-0.9-2.6C23.8,9.6,23,9.3,22,9.3c-1,0-1.8,0.4-2.4,1.1s-0.9,1.8-0.9,3.1v0h-5.4v0
			c0.1-1.9,0.4-3.6,1.1-5c0.7-1.4,1.7-2.4,3-3.1s2.8-1.1,4.5-1.1c1.8,0,3.4,0.3,4.7,1s2.3,1.6,3,2.8c0.7,1.2,1,2.7,1,4.4v0
			c0,1.1-0.1,2.1-0.4,2.9c-0.3,0.9-0.7,1.6-1.1,2.3s-1,1.4-1.7,2.3s-1.3,1.7-1.7,2.3c-0.4,0.7-0.8,1.4-1.1,2.3s-0.4,1.9-0.4,3h-5.2
			C18.9,26.4,19.1,25.1,19.4,24z M18.9,31.3h5.3v5.4h-5.3V31.3z"/>
	</g>
</g>
</svg>
