<?xml version="1.0" encoding="utf-8"?>
<!-- Generator: Adobe Illustrator 25.0.0, SVG Export Plug-In . SVG Version: 6.00 Build 0)  -->
<svg version="1.1" id="圖層_1" xmlns="http://www.w3.org/2000/svg" xmlns:xlink="http://www.w3.org/1999/xlink" x="0px" y="0px"
	 viewBox="0 0 283.5 56.7" style="enable-background:new 0 0 283.5 56.7;" xml:space="preserve">
<style type="text/css">
	.st0{fill:#663300;}
	.st1{fill:#ccbb99;}
	.st2{fill:#776655;}
	.st3{fill:#00bbff;}
	.st4{fill:#0000ff;}
	.st5{fill:#aa00ff;}
	.st6{fill:#ff0000;}
	.st7{fill:#ff0088;}
	.st8{fill:#ffbbee;}
</style>
<g>
	<g>
		<path class="st0" d="M17.8,12.4h3.7v31.9h-3.7V12.4z M20.4,26.8h14.1v3.5H20.4V26.8z M32.7,12.4h3.8v31.9h-3.8V12.4z"/>
		<path class="st1" d="M46.7,43.5c-1.4-0.8-2.5-1.9-3.3-3.4s-1.1-3.3-1.1-5.3V21.9c0-2.1,0.4-3.8,1.1-5.3s1.9-2.6,3.3-3.4
			c1.4-0.8,3.2-1.2,5.1-1.2s3.7,0.4,5.1,1.2c1.4,0.8,2.5,1.9,3.3,3.4s1.1,3.3,1.1,5.3v12.8c0,2-0.4,3.8-1.1,5.3s-1.9,2.6-3.3,3.4
			c-1.4,0.8-3.2,1.2-5.1,1.2S48.2,44.3,46.7,43.5z M55,40.3c0.9-0.5,1.5-1.2,2-2.1c0.5-0.9,0.7-2,0.7-3.3V21.8
			c0-1.3-0.2-2.4-0.7-3.3c-0.5-0.9-1.1-1.6-2-2.1s-1.9-0.7-3.1-0.7s-2.2,0.2-3.1,0.7c-0.9,0.5-1.5,1.2-2,2.1c-0.5,0.9-0.7,2-0.7,3.3
			v13.1c0,1.3,0.2,2.4,0.7,3.3c0.5,0.9,1.1,1.6,2,2.1c0.9,0.5,1.9,0.7,3.1,0.7S54.1,40.8,55,40.3z"/>
		<path class="st2" d="M78.7,12.4h2.7l5.5,26.4l4.7-26.4h3.9l-6.4,31.9h-4.2l-4.7-23.1l-5,23.1H71l-6.4-31.9h3.9l4.6,26.4L78.7,12.4
			z"/>
		<path class="st3" d="M116.8,12.4h19v3.5h-19V12.4z M124.5,14.7h3.8v29.7h-3.8V14.7z"/>
		<path class="st4" d="M142.8,43.5c-1.4-0.8-2.5-1.9-3.3-3.4s-1.1-3.3-1.1-5.3V21.9c0-2.1,0.4-3.8,1.1-5.3s1.9-2.6,3.3-3.4
			c1.4-0.8,3.2-1.2,5.1-1.2c2,0,3.7,0.4,5.1,1.2c1.4,0.8,2.5,1.9,3.3,3.4s1.1,3.3,1.1,5.3v12.8c0,2-0.4,3.8-1.1,5.3
			s-1.9,2.6-3.3,3.4c-1.4,0.8-3.2,1.2-5.1,1.2C146,44.7,144.3,44.3,142.8,43.5z M151.1,40.3c0.9-0.5,1.5-1.2,2-2.1
			c0.5-0.9,0.7-2,0.7-3.3V21.8c0-1.3-0.2-2.4-0.7-3.3c-0.5-0.9-1.1-1.6-2-2.1c-0.9-0.5-1.9-0.7-3.1-0.7s-2.2,0.2-3.1,0.7
			c-0.9,0.5-1.5,1.2-2,2.1c-0.5,0.9-0.7,2-0.7,3.3v13.1c0,1.3,0.2,2.4,0.7,3.3c0.5,0.9,1.1,1.6,2,2.1c0.9,0.5,1.9,0.7,3.1,0.7
			S150.2,40.8,151.1,40.3z"/>
		<path class="st5" d="M184.5,12.4h3.8v31.9h-3.8V12.4z M186.8,28.4h8.3c0.8,0,1.6-0.2,2.2-0.6c0.6-0.4,1.1-0.9,1.5-1.7
			c0.3-0.7,0.5-1.6,0.5-2.5v-2.8c0-1-0.2-1.9-0.5-2.6c-0.3-0.7-0.8-1.3-1.5-1.7c-0.6-0.4-1.4-0.6-2.3-0.6h-8.3v-3.5h8.2
			c1.7,0,3.1,0.3,4.4,1s2.2,1.6,2.8,2.9c0.7,1.3,1,2.8,1,4.5v2.9c0,1.7-0.3,3.2-1,4.4c-0.7,1.3-1.6,2.2-2.8,2.9s-2.7,1-4.4,1h-8.2
			V28.4z"/>
		<path class="st6" d="M208.3,12.4h3.8v31.9h-3.8V12.4z M210.6,40.8h14.7v3.5h-14.7V40.8z"/>
		<path class="st7" d="M236.8,12.4h3.8l9.6,31.9h-4.1l-7.4-27l-7.4,27h-4.1L236.8,12.4z M232.1,33.5h13.5v3.5h-13.5V33.5z"/>
		<path class="st8" d="M262.5,31.1v13.2h-3.8V31.1l-8.3-18.7h4l6.2,14.7l6.1-14.7h4L262.5,31.1z"/>
	</g>
</g>
</svg>
