<svg class="st0-svg" xmlns="http://www.w3.org/2000/svg" viewBox="0 0 283.5 283.5" >
<style type="text/css">
	.st0{fill:#ff0000;}
	.st1{fill:#009944;}
	.st2{fill:#00bbff;}
</style>
<path class="st0" d="M55.1,183.7c-19.8-12.7-32.9-34.9-32.9-60.2c0-39.6,32.1-71.6,71.6-71.6c24.7,0,46.5,12.5,59.4,31.6h15.6
	c-14.3-26.8-42.5-45-75-45c-47,0-85,38.1-85,85c0,37.5,24.4,69.4,58.1,80.7L55.1,183.7z"/>
<path class="st1" d="M220.5,273.8H114.2L61,181.7l53.1-92.1h106.3l53.1,92.1L220.5,273.8z M212.1,104.2h-89.5l-44.8,77.5l44.8,77.5
	h89.5l44.8-77.5L212.1,104.2z"/>
<polygon class="st1" points="203.7,244.7 131,244.7 94.6,181.7 131,118.7 203.7,118.7 240.1,181.7 "/>
<path class="st0" d="M110.7,83.5h25.5C122.4,69,101.4,61.9,80.5,66.9c-31.3,7.4-50.7,38.7-43.3,70c3.4,14.3,11.8,26.2,23,34.1
	L110.7,83.5z"/>
<path class="st2" d="M176.9,83.5H224l17.1,29.5V33.4h-97v12.9C158.2,55.4,169.5,68.3,176.9,83.5z"/>
<path class="st2" d="M132.9,22.2h119.3v110.3l11.2,19.4V11H121.8v24.7c3.8,1.2,7.6,2.7,11.2,4.4V22.2z"/>
</svg>