<?xml version="1.0" encoding="utf-8"?>
<!-- Generator: Adobe Illustrator 25.0.0, SVG Export Plug-In . SVG Version: 6.00 Build 0)  -->
<svg class="st0-svg" version="1.1" id="help" xmlns="http://www.w3.org/2000/svg" xmlns:xlink="http://www.w3.org/1999/xlink" x="0px" y="0px"
	 viewBox="0 0 42.5 42.5" style="enable-background:new 0 0 42.5 42.5;" xml:space="preserve">
<path d="M26.2,6.2h-10c-0.6,0-1,0.4-1,1v28c0,0.6,0.4,1,1,1h10c0.6,0,1-0.4,1-1v-28C27.2,6.7,26.8,6.2,26.2,6.2z"/>
<path d="M12,13.8H2c-0.6,0-1,0.4-1,1v20.5c0,0.6,0.4,1,1,1h10c0.6,0,1-0.4,1-1V14.8C13,14.2,12.6,13.8,12,13.8z"/>
<path d="M40.5,21.2h-10c-0.6,0-1,0.4-1,1v13c0,0.6,0.4,1,1,1h10c0.6,0,1-0.4,1-1v-13C41.5,21.7,41.1,21.2,40.5,21.2z"/>
</svg>
