<?xml version="1.0" encoding="utf-8"?>
<svg version="1.1" xmlns="http://www.w3.org/2000/svg"  viewBox="0 0 34.02 11.34">
<style type="text/css">
  .st0{fill:#776655;}
  .st1{fill:#ff5500;}
  .st2{fill:#005522;}
  .st3{fill:#ff0088;}
  .st4{fill:#ccbb99;}
</style>
<g>
	<g>
		<path class="st0" d="M7.73,2.66h1v8.52h-1V4.33L7.8,4.7L5.47,10H4.75L2.42,4.82l0.07-0.49v6.85h-1V2.66h1l2.62,5.89L7.73,2.66z"/>
		<path class="st1" d="M11,10.79c-0.38-0.32-0.57-0.79-0.57-1.4c0-0.59,0.17-1.03,0.52-1.34s0.86-0.46,1.53-0.46h1.88l0.08,0.87
			h-1.95c-0.35,0-0.62,0.08-0.8,0.24s-0.28,0.39-0.28,0.69c0,0.33,0.12,0.58,0.35,0.74s0.58,0.25,1.03,0.25
			c0.49,0,0.87-0.05,1.12-0.15s0.38-0.25,0.38-0.45l0.12,0.83c-0.11,0.14-0.26,0.27-0.43,0.37s-0.37,0.17-0.59,0.22
			s-0.47,0.07-0.74,0.07C11.94,11.27,11.38,11.11,11,10.79z M14.3,7.32c0-0.44-0.12-0.79-0.36-1.04s-0.58-0.37-1.01-0.37
			c-0.27,0-0.53,0.04-0.78,0.13s-0.48,0.2-0.68,0.35l-0.74-0.51c0.23-0.28,0.53-0.49,0.91-0.65s0.8-0.23,1.26-0.23
			c0.5,0,0.94,0.09,1.29,0.27s0.63,0.44,0.82,0.77s0.28,0.75,0.28,1.22v3.91H14.3V7.32z"/>
		<path class="st2" d="M17.11,5.1h1.02v6.08h-1.02V5.1z M20.14,6.07c-0.18-0.07-0.38-0.1-0.61-0.1c-0.45,0-0.79,0.12-1.03,0.36
			s-0.37,0.57-0.37,1l-0.12-1.17c0.2-0.36,0.47-0.65,0.8-0.85s0.69-0.3,1.09-0.3c0.28,0,0.53,0.04,0.75,0.12s0.42,0.2,0.59,0.35
			l-0.66,0.88C20.46,6.23,20.32,6.14,20.14,6.07z"/>
		<path class="st3" d="M22.23,2.66h1.02v8.52h-1.02V2.66z M22.79,8.99l3.29-3.89h1.2l-4.61,5.19L22.79,8.99z M24.36,7.78l0.63-0.8
			l2.59,4.19h-1.16L24.36,7.78z"/>
		<path class="st4" d="M31.67,5.01h1.1v1.11h-1.1V5.01z M31.67,10.07h1.1v1.11h-1.1V10.07z"/>
	</g>
</g>
</svg>
