<?xml version="1.0" encoding="utf-8"?>
<!-- Generator: Adobe Illustrator 25.0.0, SVG Export Plug-In . SVG Version: 6.00 Build 0)  -->
<svg class="st0-svg" version="1.1" id="exit" xmlns="http://www.w3.org/2000/svg" xmlns:xlink="http://www.w3.org/1999/xlink" x="0px" y="0px"
	 viewBox="0 0 42.5 42.5" style="enable-background:new 0 0 42.5 42.5;" xml:space="preserve">
<path d="M35.2,21.2c0-0.6,0-1.1-0.1-1.7c0-0.3,0.1-0.6,0.4-0.8l4.1-2.3c0.4-0.2,0.5-0.7,0.3-1l-4.2-7.4c-0.2-0.4-0.7-0.5-1-0.3
	l-4.1,2.3c-0.3,0.2-0.6,0.1-0.8-0.1c-0.9-0.7-1.9-1.3-3-1.7c-0.3-0.1-0.5-0.4-0.5-0.7V3c0-0.4-0.3-0.8-0.8-0.8H17
	c-0.4,0-0.8,0.3-0.8,0.8v4.7c0,0.3-0.2,0.6-0.5,0.7c-1.1,0.4-2.1,1-3,1.7c-0.2,0.2-0.6,0.2-0.8,0.1L7.9,7.8c-0.4-0.2-0.8-0.1-1,0.3
	l-4.2,7.4c-0.2,0.4-0.1,0.8,0.3,1L7,18.8c0.3,0.2,0.4,0.4,0.4,0.8c-0.1,0.6-0.1,1.1-0.1,1.7c0,0.6,0,1.1,0.1,1.7
	c0,0.3-0.1,0.6-0.4,0.8L2.9,26c-0.4,0.2-0.5,0.7-0.3,1l4.2,7.4c0.2,0.4,0.7,0.5,1,0.3l4.1-2.3c0.3-0.2,0.6-0.1,0.8,0.1
	c0.9,0.7,1.9,1.3,3,1.7c0.3,0.1,0.5,0.4,0.5,0.7c0,1,0,3.5,0,4.7c0,0.4,0.3,0.7,0.8,0.7h8.5c0.4,0,0.8-0.3,0.8-0.8l0-4.7
	c0-0.3,0.2-0.6,0.5-0.7c1.1-0.4,2.1-1,3-1.7c0.2-0.2,0.6-0.2,0.8-0.1c0.9,0.5,3,1.7,4.1,2.3c0.4,0.2,0.8,0.1,1-0.3l4.2-7.4
	c0.2-0.4,0.1-0.8-0.3-1l-4.1-2.3c-0.3-0.2-0.4-0.4-0.4-0.8C35.2,22.4,35.2,21.8,35.2,21.2z M21.2,27.2c-3.3,0-6-2.7-6-6s2.7-6,6-6
	s6,2.7,6,6S24.6,27.2,21.2,27.2z"/>
</svg>
