<svg xmlns="http://www.w3.org/2000/svg" viewBox="0 0 283.5 50" >>
		<path fill="#E60012" d="M12,45.5c-1.8-0.4-3.5-1-5-1.7c-1.6-0.8-3-1.7-4.4-2.9l2.5-3.3c1.7,1.5,3.7,2.7,5.7,3.4s4.4,1.1,6.8,1.1
			c3.6,0,6.3-0.7,8.3-2.1c2-1.4,2.9-3.4,2.9-5.9v0c0-1.6-0.4-2.8-1.3-3.8c-0.8-1-1.9-1.7-3.3-2.1c-1.3-0.5-3.1-0.9-5.2-1.3
			c-0.1,0-0.1,0-0.2,0c-0.1,0-0.1,0-0.2,0l-0.8-0.2c-2.9-0.6-5.3-1.1-7-1.7s-3.2-1.6-4.5-3.1c-1.2-1.4-1.8-3.4-1.8-6v0
			c0-2.6,0.6-4.8,1.7-6.6C7.4,7.4,9.1,6,11.3,5c2.2-1,4.9-1.4,8-1.4c1.5,0,2.9,0.2,4.4,0.5c1.4,0.3,2.9,0.8,4.3,1.4
			c1.4,0.6,2.8,1.4,4.2,2.4l-2.4,3.2c-1.8-1.3-3.5-2.2-5.3-2.8S21,7.4,19.3,7.4c-3.4,0-6,0.7-7.9,2.1s-2.8,3.4-2.8,6v0
			c0,1.6,0.5,2.8,1.4,3.7c0.9,0.9,2.1,1.6,3.5,2c1.4,0.4,3.3,0.9,5.7,1.4c0.1,0,0.2,0,0.2,0.1c0.1,0,0.2,0,0.3,0.1
			c0.1,0,0.2,0,0.3,0.1c0.1,0,0.2,0.1,0.3,0.1c2.6,0.5,4.8,1.1,6.5,1.8c1.7,0.7,3.2,1.8,4.3,3.2c1.2,1.5,1.7,3.4,1.7,5.9V34
			c0,2.5-0.6,4.7-1.8,6.5c-1.2,1.8-2.9,3.2-5.2,4.1c-2.3,0.9-5,1.4-8.3,1.4C15.6,46,13.7,45.8,12,45.5z"/>
		<path fill="#00A0E9" d="M45.6,4h4.1v41.6h-4.1V4z M48.4,23.1h24.8v4H48.4V23.1z M71,4h4.1v41.6H71V4z"/>
		<path fill="#601986" d="M101.1,4h5l15.3,41.6h-4.6L103.6,8.3L90.3,45.6h-4.6L101.1,4z M92.8,31.7h21.9v3.8H92.8V31.7z"/>
		<path fill="#FFF100" d="M132.1,4h4.1v41.6h-4.1V4z M135.1,25.6h13.3c1.6,0,3-0.4,4.3-1.1c1.2-0.7,2.2-1.8,2.9-3.1
			c0.7-1.3,1-2.9,1-4.6c0-1.8-0.3-3.3-1-4.7c-0.7-1.3-1.6-2.4-2.9-3.1c-1.2-0.7-2.7-1.1-4.3-1.1h-13.3V4h13.1c2.5,0,4.7,0.5,6.6,1.6
			s3.4,2.6,4.4,4.5c1,1.9,1.6,4.2,1.6,6.7c0,2.5-0.5,4.7-1.6,6.7c-1,1.9-2.5,3.4-4.4,4.5c-1.9,1.1-4.1,1.6-6.6,1.6h-13.1V25.6z"/>
		<path fill="#F39800" d="M172.9,4h4.1v41.6h-4.1V4z M175.8,4h23.9v3.8h-23.9V4z M175.8,23h20.7v3.8h-20.7V23z M175.8,41.8h23.9v3.8
			h-23.9V41.8z"/>
		<path fill="#009944" d="M212.4,4h4.1v41.6h-4.1V4z M215.3,41.8h23.8v3.8h-23.8V41.8z"/>
		<path fill="#C9BC9C" d="M250.3,4h4.1v41.6h-4.1V4z M253.2,4H277v3.8h-23.9V4z M253.2,23h20.7v3.8h-20.7V23z M253.2,41.8H277v3.8
			h-23.9V41.8z"/>
</svg>
