<?xml version="1.0" encoding="utf-8"?>
<!-- Generator: Adobe Illustrator 25.0.0, SVG Export Plug-In . SVG Version: 6.00 Build 0)  -->
<svg version="1.1" id="exit" xmlns="http://www.w3.org/2000/svg" xmlns:xlink="http://www.w3.org/1999/xlink" x="0px" y="0px"
	 viewBox="0 0 42.5 42.5" style="enable-background:new 0 0 42.5 42.5;" xml:space="preserve">
<g id="Logo_1_">
	<path id="white_background" d="M35.4,13.9c0,0.3,0,0.6,0,0.9c0,9.5-7.2,20.4-20.4,20.4v0c-3.9,0-7.7-1.1-11-3.2
		c0.6,0.1,1.1,0.1,1.7,0.1c3.2,0,6.4-1.1,8.9-3.1C11.6,29,8.9,27,7.9,24c1.1,0.2,2.2,0.2,3.2-0.1c-3.3-0.7-5.8-3.6-5.8-7
		c0,0,0-0.1,0-0.1c1,0.6,2.1,0.9,3.3,0.9c-3.2-2.1-4.1-6.3-2.2-9.6c3.6,4.5,9,7.2,14.8,7.5c-0.6-2.5,0.2-5.1,2.1-6.9
		C26.2,6,30.8,6.2,33.5,9c1.6-0.3,3.1-0.9,4.6-1.7c-0.5,1.7-1.7,3.1-3.2,4c1.4-0.2,2.8-0.5,4.1-1.1C38,11.6,36.8,12.8,35.4,13.9z"/>
</g>
</svg>
