<?xml version="1.0" encoding="utf-8"?>
<!-- Generator: Adobe Illustrator 25.0.0, SVG Export Plug-In . SVG Version: 6.00 Build 0)  -->
<svg version="1.1" id="圖層_1" xmlns="http://www.w3.org/2000/svg" xmlns:xlink="http://www.w3.org/1999/xlink" x="0px" y="0px"
	 viewBox="0 0 141.7 141.7" style="enable-background:new 0 0 141.7 141.7;" xml:space="preserve">
<g>
	<g>
		<path d="M20.9,54.4c14-10.6,29.1-19.8,45-27.3c-5.1-5.1-10.3-10.3-15.4-15.4C35.9,33.2,22.3,55.4,9.6,78.1
			c-6.5,11.5,8.2,21.8,17.7,13.6c30.3-26,60.9-54.6,100.9-64c-2.9-6.9-5.8-13.7-8.7-20.6c-11.1,8.2-23.8,14-34.7,22.5
			C74.3,37.8,65.7,47.9,56.1,57c-10,9.4-19.6,18.8-26.6,30.7c-6.7,11.4-11.6,23.7-19.5,34.4c-6.8,9.2,6.3,21.1,15.4,15.4
			c10.3-6.6,20.5-13.5,29.8-21.4c9-7.6,16.5-16.4,24.4-25.1c15.1-16.6,33-29.7,53.4-39.2c-4.5-5.9-9.1-11.8-13.6-17.7
			c-19.6,24.7-42.1,47.2-58.1,74.4c-6.1,10.4,5.7,19.9,15.4,15.4c15.6-7.3,31.2-14.5,46.8-21.8c-5.5-2.2-11-4.5-16.5-6.7
			c0.5,2.4-0.4,6.7,0.3,9.7c3.4-5.6,4.2-7.5,2.5-5.9c-0.2,0.2-0.4,0.4-0.6,0.5c1.4-1.1,1.6-1.2,0.5-0.4c-0.5,0.3-0.9,0.7-1.4,1
			c-3.6,2.5-7.4,4.7-11,7.2c-6.7,4.5-10,12.7-3.5,19.3c4.2,4.2,11,7.7,16.6,9.2c14,3.6,20-18.1,6-21.7c-0.2-0.1-2.8-1-1.2-0.3
			c-1.1-0.5-2.2-1.1-3.2-1.7c-1-0.6-1.9-1.2-2.8-1.8c-2-1.2,1.1,1.1,0.2,0.1c1,1.7,1.9,3.3,2.9,5c0-0.1,0-0.1-0.1-0.2
			c-1,3.6-1.9,7.3-2.9,10.9c-1.1,1.2-2.4,1.7-0.2,0.3c1.3-0.8,2.6-1.7,3.9-2.5c2.9-1.9,5.8-3.7,8.6-5.8c4.4-3.3,7.4-6.3,8-12
			c0.6-5.6,0.1-11.4-1-16.9c-1.6-7.7-10.4-9.6-16.5-6.7c-15.6,7.3-31.2,14.5-46.8,21.8c5.1,5.1,10.3,10.3,15.4,15.4
			c15.1-25.6,36.2-46.7,54.6-69.9c7.9-10-1.6-23.2-13.6-17.7c-20.8,9.7-39.8,23.3-55.5,40C58.1,81,50.8,90.1,42,97.9
			c-8.6,7.6-18.2,14.1-28,20.2c5.1,5.1,10.3,10.3,15.4,15.4c7.5-10.2,12.4-21.9,18.6-32.9c6.2-10.9,14.9-19.1,24-27.7
			c9.1-8.6,17.3-18.7,27.3-26.3c9.9-7.5,21.5-12.6,31.5-20c4.5-3.3,7-8.6,4.6-14c-2.3-5.2-7.7-7.8-13.3-6.5
			C78.3,16.3,44.6,47.3,11.3,75.8c5.9,4.5,11.8,9.1,17.7,13.6C41.7,66.7,55.4,44.6,69.9,23c2.8-4.1,1.6-10.3-1.8-13.6
			c-3.7-3.7-9.1-3.9-13.6-1.8c-15.9,7.5-31,16.7-45,27.3c-4.8,3.7-7.4,9.7-4,15.4C8.3,55.1,16,58.1,20.9,54.4L20.9,54.4z"/>
	</g>
</g>
</svg>
