<?xml version="1.0" encoding="utf-8"?>
<!-- Generator: Adobe Illustrator 25.0.0, SVG Export Plug-In . SVG Version: 6.00 Build 0)  -->
<svg version="1.1" id="round" xmlns="http://www.w3.org/2000/svg" xmlns:xlink="http://www.w3.org/1999/xlink" x="0px" y="0px"
	 viewBox="0 0 50 50" style="enable-background:new 0 0 50 50;" xml:space="preserve">
<polygon points="27,30.8 25,24.2 23,30.8 18.3,35.8 25,34.3 31.8,35.8 "/>
<path d="M36.1,31.8l-3.8-4.1l-1.6-5.3L25,3.6l-5.8,18.8l-1.6,5.3l-3.8,4.1L0.5,46.1l19.1-4.4l5.4-1.2l5.4,1.2l19.1,4.4L36.1,31.8z
	 M25,37.4l-6.1,1.4L9.4,41l6.7-7.2l4.3-4.6l1.8-6l2.9-9.4l2.9,9.4l1.8,6l4.3,4.6l6.7,7.2l-9.6-2.2L25,37.4z"/>
</svg>
