<?xml version="1.0" encoding="utf-8"?>
<!-- Generator: Adobe Illustrator 25.0.0, SVG Export Plug-In . SVG Version: 6.00 Build 0)  -->
<svg version="1.1" id="round" xmlns="http://www.w3.org/2000/svg" xmlns:xlink="http://www.w3.org/1999/xlink" x="0px" y="0px"
	 viewBox="0 0 50 50" style="enable-background:new 0 0 50 50;" xml:space="preserve">
<polygon points="23,18.9 25,25.5 27,18.9 31.7,13.9 25,15.4 18.2,13.9 "/>
<path d="M13.9,17.9l3.8,4.1l1.6,5.3L25,46.1l5.8-18.8l1.6-5.3l3.8-4.1L49.5,3.6L30.4,8L25,9.2L19.6,8L0.5,3.6L13.9,17.9z M25,12.3
	l6.1-1.4l9.5-2.2l-6.7,7.2l-4.3,4.6l-1.8,6l-2.9,9.4L22,26.5l-1.8-6l-4.3-4.6L9.2,8.7l9.6,2.2L25,12.3z"/>
</svg>