<?xml version="1.0" encoding="utf-8"?>
<!-- Generator: Adobe Illustrator 25.0.0, SVG Export Plug-In . SVG Version: 6.00 Build 0)  -->
<svg version="1.1" id="round" xmlns="http://www.w3.org/2000/svg" xmlns:xlink="http://www.w3.org/1999/xlink" x="0px" y="0px"
	 viewBox="0 0 50 50" style="enable-background:new 0 0 50 50;" xml:space="preserve">
<path d="M36.1,14.1L34,16.1L23.9,6.1l-5.7-5.7l-5.7,5.7l-6.5,6.5l-5.7,5.7l5.7,5.7L16.1,34l-2.1,2.1L0.4,49.7h19.3h22h8v-8v-22V0.4
	L36.1,14.1z M45.7,19.7v22v4h-4h-22h-9.6l6.8-6.8l4.9-4.9L8.9,21.1l-2.8-2.8l2.8-2.8l6.5-6.5l2.8-2.8l2.8,2.8L34,21.8l4.9-4.9
	l6.8-6.8V19.7z"/>
<polygon points="19.7,41.7 41.7,41.7 41.7,19.7 34,27.5 18.3,11.7 11.7,18.3 27.5,34 "/>
</svg>
