<?xml version="1.0" encoding="utf-8"?>
<!-- Generator: Adobe Illustrator 25.0.0, SVG Export Plug-In . SVG Version: 6.00 Build 0)  -->
<svg version="1.1" id="round" xmlns="http://www.w3.org/2000/svg" xmlns:xlink="http://www.w3.org/1999/xlink" x="0px" y="0px"
	 viewBox="0 0 50 50" style="enable-background:new 0 0 50 50;" xml:space="preserve">
<path d="M41.4,19.8L31.1,7.6L25,0.3l-6.1,7.3L8.6,19.8L4.2,25l4.3,5.2l10.3,12.3l6.1,7.3l6.1-7.3l10.3-12.3l4.3-5.2L41.4,19.8z
	 M38.4,27.6L28.1,39.8L25,43.5l-3.1-3.6L11.6,27.6L9.5,25l2.2-2.6l10.3-12.2L25,6.5l3.1,3.6l10.3,12.2l2.2,2.6L38.4,27.6z"/>
<polygon points="25,37.2 35.3,25 25,12.7 14.7,25 "/>
</svg>
