<?xml version="1.0" encoding="utf-8"?>
<!-- Generator: Adobe Illustrator 25.0.0, SVG Export Plug-In . SVG Version: 6.00 Build 0)  -->
<svg version="1.1" id="round" xmlns="http://www.w3.org/2000/svg" xmlns:xlink="http://www.w3.org/1999/xlink" x="0px" y="0px"
	 viewBox="0 0 50 50" style="enable-background:new 0 0 50 50;" xml:space="preserve">
<path d="M13.5,41.8c4.7,0,11.8-3.8,18.1-10.1c8.5-8.5,12.4-18.3,8.7-22c-0.9-0.9-2.3-1.4-3.9-1.4c-4.7,0-11.8,3.8-18.1,10.1
	C9.9,26.8,6,36.7,9.6,40.4C10.6,41.3,11.9,41.8,13.5,41.8z"/>
<path d="M46,4c-1.7-1.7-4.7-3.7-9.6-3.7h0c-7.1,0-16,4.6-23.8,12.4C0.3,25.1-3.3,38.8,4,46c1.7,1.7,4.7,3.7,9.6,3.7
	c7.1,0,16-4.6,23.8-12.4C49.7,24.9,53.3,11.2,46,4z M44.3,20.3C42.5,25,39,30,34.5,34.5c-6.9,6.9-15,11.3-20.9,11.3
	c-3.5,0-5.6-1.4-6.7-2.6c-1.7-1.7-4.2-5.8-1.1-13.5C7.5,25,11,20,15.5,15.5c6.9-6.9,15-11.3,20.9-11.3h0c3.5,0,5.6,1.4,6.7,2.6
	C44.9,8.5,47.4,12.6,44.3,20.3z"/>
</svg>
