<?xml version="1.0" encoding="utf-8"?>
<!-- Generator: Adobe Illustrator 25.0.0, SVG Export Plug-In . SVG Version: 6.00 Build 0)  -->
<svg version="1.1" id="round" xmlns="http://www.w3.org/2000/svg" xmlns:xlink="http://www.w3.org/1999/xlink" x="0px" y="0px"
	 viewBox="0 0 56.69 56.69" style="enable-background:new 0 0 56.69 56.69;" xml:space="preserve">
<path d="M55.28,22.3L35,21.89L28.35,2.74l-6.66,19.15L1.42,22.3l16.16,12.25L11.7,53.96l16.64-11.58l16.64,11.58l-5.87-19.41
	L55.28,22.3z M39.73,46.58l-11.39-7.92l-11.39,7.92l4.02-13.28L9.92,24.92l13.87-0.28l4.55-13.1l4.55,13.1l13.87,0.28L35.72,33.3
	L39.73,46.58z"/>
<polygon points="28.35,18.31 31.32,26.87 40.39,27.06 33.17,32.54 35.79,41.22 28.35,36.04 20.9,41.22 23.53,32.54 16.3,27.06 
	25.37,26.87 "/>
</svg>
