<?xml version="1.0" encoding="utf-8"?>
<!-- Generator: Adobe Illustrator 25.0.0, SVG Export Plug-In . SVG Version: 6.00 Build 0)  -->
<svg version="1.1" id="round" xmlns="http://www.w3.org/2000/svg" xmlns:xlink="http://www.w3.org/1999/xlink" x="0px" y="0px"
	 viewBox="0 0 50 50" style="enable-background:new 0 0 50 50;" xml:space="preserve">
<polygon points="25.4,26.6 25,25.6 24.6,26.6 23.5,26.7 24.4,27.3 24.1,28.4 25,27.8 25.9,28.4 25.6,27.3 26.5,26.7 "/>
<path d="M49.7,19.1l-18.6-0.4L25,1.2l-6.1,17.5L0.3,19.1l14.8,11.2L9.8,48.1L25,37.5l15.2,10.6l-5.4-17.8L49.7,19.1z M25,32.7
	l-8.1,5.6l2.9-9.4l-7.8-5.9l9.8-0.2l3.2-9.3l3.2,9.3l9.9,0.2l-7.9,6l2.9,9.4L25,32.7z"/>
</svg>
