<?xml version="1.0" encoding="utf-8"?>
<!-- Generator: Adobe Illustrator 25.0.0, SVG Export Plug-In . SVG Version: 6.00 Build 0)  -->
<svg version="1.1" id="round" xmlns="http://www.w3.org/2000/svg" xmlns:xlink="http://www.w3.org/1999/xlink" x="0px" y="0px"
	 viewBox="0 0 50 50" style="enable-background:new 0 0 50 50;" xml:space="preserve">
<rect x="21.2" y="10.6" transform="matrix(0.7071 -0.7071 0.7071 0.7071 -10.3554 25)" width="7.6" height="28.8"/>
<path d="M43.5,26.9L23.1,6.5l-5.7-5.7l-5.7,5.7l-5.4,5.4l-5.7,5.7l5.7,5.7l20.4,20.4l5.7,5.7l5.7-5.7l5.4-5.4l5.7-5.7L43.5,26.9z
	 M40.7,35.3l-5.4,5.4l-2.8,2.8l-2.8-2.8L9.3,20.3l-2.8-2.8l2.8-2.8l5.4-5.4l2.8-2.8l2.8,2.8l20.4,20.4l2.8,2.8L40.7,35.3z"/>
</svg>
