<?xml version="1.0" encoding="utf-8"?>
<!-- Generator: Adobe Illustrator 25.0.0, SVG Export Plug-In . SVG Version: 6.00 Build 0)  -->
<svg version="1.1" id="round" xmlns="http://www.w3.org/2000/svg" xmlns:xlink="http://www.w3.org/1999/xlink" x="0px" y="0px"
	 viewBox="0 0 50 50" style="enable-background:new 0 0 50 50;" xml:space="preserve">
<polygon points="25,31.1 32.1,38.2 38.2,32.1 31.1,25 38.2,17.9 32.1,11.7 25,18.9 17.9,11.7 11.7,17.9 18.9,25 11.7,32.1 
	17.9,38.2 "/>
<path d="M42.4,25l1.5-1.5l5.7-5.7l-5.7-5.7l-6.1-6.1l-5.7-5.6l-5.7,5.7L25,7.6l-1.5-1.5l-5.7-5.7l-5.7,5.7l-6.1,6.1l-5.7,5.7
	l5.7,5.7L7.6,25l-1.5,1.5l-5.6,5.7l5.7,5.7l6.1,6.1l5.7,5.7l5.7-5.7l1.5-1.5l1.5,1.5l5.7,5.7l5.7-5.7l6.1-6.1l5.7-5.7l-5.7-5.7
	L42.4,25z M41.1,35l-6.1,6.1l-2.8,2.8l-2.8-2.8L25,36.8l-4.3,4.3l-2.8,2.8L15,41.1L8.9,35l-2.8-2.8l2.8-2.8l4.3-4.3l-4.3-4.3
	l-2.8-2.8L8.9,15L15,8.9l2.8-2.8l2.8,2.8l4.3,4.3l4.3-4.3l2.8-2.8l2.8,2.8l6.1,6.1l2.8,2.8l-2.8,2.8L36.8,25l4.3,4.3l2.8,2.8
	L41.1,35z"/>
</svg>
